Torrent-Force Release Group


*************************************************************************

TITLE: 1408

GENRE: Horror/Thriller
IMDB RATE: 6.9/10, 70,860 votes
IMDB URL: [url]http://www.imdb.com/title/tt0450385[/url]
IMDB TRAILER: [url]http://www.imdb.com/video/imdb/vi3115516185[/url]
RELEASE DATE: 31st August 2007

PLOT
The cynical and skeptical writer Mike Enslin writes books evaluating supernatural phenomena in 
hotels, graveyards and other haunted places, usually debunking the mystery. While writing his 
last book, he travels from Los Angeles to New York to spend one night in the evil room 1408 of 
the Dolphin Hotel, which is permanently unavailable for guests. The reluctant manager Mr. Gerald Olin 
objects to his request and offers an upgrade, expensive booze and finally the reports relating the 
death of more than fifty guests along decades in the cursed room. However, Mike threatens Mr. Oiln, 
promising to sue the hotel, and finally checks in the room. Along the night, he finds that guests of 
room 1408 can check out when they like, but they can never leave the room alive.

Director: Mikael Håfström

Writers (WGA): Matt Greenberg (screenplay) and Scott Alexander (screenplay)

CAST
John Cusack...Mike Enslin
Samuel L. Jackson...Gerald Olin
Mary McCormack...Lily
Tony Shalhoub...Sam Farrell
Len Cariou...Mike's Father
Isiah Whitlock Jr...Hotel Engineer
Jasmine Jessica Anthony...Katie


****************************************************************************

Format                           : MPEG-4
Format profile                   : Base Media
Codec ID                         : isom
File size                        : 1.93 GiB
Duration                         : 1h 52mn
Overall bit rate                 : 2 457 Kbps
Encoded date                     : UTC 2010-06-16 22:00:16
Tagged date                      : UTC 2010-06-16 22:00:16

Video
ID                               : 1
Format                           : AVC
Format/Info                      : Advanced Video Codec
Format profile                   : High@L4.1
Format settings, CABAC           : Yes
Format settings, ReFrames        : 3 frames
Codec ID                         : avc1
Codec ID/Info                    : Advanced Video Coding
Duration                         : 1h 52mn
Bit rate mode                    : Variable
Bit rate                         : 2 200 Kbps
Maximum bit rate                 : 11.3 Mbps
Width                            : 1 280 pixels
Height                           : 528 pixels
Display aspect ratio             : 2.40:1
Frame rate mode                  : Constant
Frame rate                       : 23.976 fps
Color space                      : YUV
Chroma subsampling               : 4:2:0
Bit depth                        : 8 bits
Scan type                        : Progressive
Bits/(Pixel*Frame)               : 0.136
Stream size                      : 1.73 GiB (90%)
Title                            : Imported with GPAC 0.4.6-DEV (build 1)
Writing library                  : x264 core 80 r1376M 3feaec2

Audio
ID                               : 2
Format                           : AAC
Format/Info                      : Advanced Audio Codec
Format version                   : Version 4
Format profile                   : LC
Format settings, SBR             : No
Codec ID                         : 40
Duration                         : 1h 52mn
Bit rate mode                    : Variable
Bit rate                         : 254 Kbps
Maximum bit rate                 : 401 Kbps
Channel(s)                       : 6 channels
Channel positions                : Front: L C R, Side: L R, LFE
Sampling rate                    : 48.0 KHz
Stream size                      : 204 MiB (10%)

SUBTITLES: None
SOURCE: BR 1080p neskas 
ENCODER: GREY-SHADOW

****************************************************************************

SCREENSHOTS

*****************************************************************************

HASH
9DE8942E8A36BC1613FBA78E97A477066120B3C7

TRACKERS
[code]http://genesis.1337x.org:1337/announce[/code]
[code]http://nemesis.1337x.org/announce[/code]
[code]http://tracker.openbittorrent.com/announce[/code]
[code]http://denis.stalker.h3q.com/announce[/code]
[code]http://tracker.publicbt.com/announce[/code]
[code]http://tracker.prq.to/announce[/code]

I hope you enjoy my rips and encodes, please be kind enough to seed for others to 
download as well, if you find fault or are pleased with this torrent please comment, 
all are welcome.
 
I am part of the http://www.torrentforce.org , Westy1983 & Ripwyn deserve a thanks my
friends, as do many within the community of file sharing sites, caring is sharing.

[IMG]http://i996.photobucket.com/albums/af81/grey-shadow/GreyShadow2.png[/IMG]
A big thanks to ABOC23 for this great sig and avatar